REM DIRINDEX 1\6,1\2\7,1\2\8,1\2\9,1\3\10,1\3\11,1\4\12,1\4\13,1\4\14,1\5\15,1\5\16,1\5\17
REM DIRNAME folder01,folder02,folder03,folder04,folder05,folder06,folder07,folder08,folder09,folder10,folder11,folder12,folder13,folder14,folder15,folder16,folder17
TITLE ""
FILE "3Q_t_0424-0439.mp3" MP3
  TRACK 01 AUDIO
    TITLE "10:cjc041_2455"
    INDEX 01 00:00:00
  TRACK 02 AUDIO
    TITLE "0:"
    INDEX 01 00:00:72
  TRACK 03 AUDIO
    TITLE "11:cjc041_2456"
    INDEX 01 00:01:52
  TRACK 04 AUDIO
    TITLE "0:"
    INDEX 01 00:02:59
  TRACK 05 AUDIO
    TITLE "10:cjc041_2457"
    INDEX 01 00:03:31
  TRACK 06 AUDIO
    TITLE "0:"
    INDEX 01 00:04:62
  TRACK 07 AUDIO
    TITLE "11:cjc041_2458"
    INDEX 01 00:05:42
  TRACK 08 AUDIO
    TITLE "0:"
    INDEX 01 00:08:11
  TRACK 09 AUDIO
    TITLE "10:cjc041_2459"
    INDEX 01 00:08:68
  TRACK 10 AUDIO
    TITLE "0:"
    INDEX 01 00:09:73
  TRACK 11 AUDIO
    TITLE "11:cjc041_2460"
    INDEX 01 00:10:53
  TRACK 12 AUDIO
    TITLE "0:"
    INDEX 01 00:11:39
  TRACK 13 AUDIO
    TITLE "10:cjc041_2461"
    INDEX 01 00:12:20
  TRACK 14 AUDIO
    TITLE "0:"
    INDEX 01 00:13:45
  TRACK 15 AUDIO
    TITLE "11:cjc041_2462"
    INDEX 01 00:14:21
  TRACK 16 AUDIO
    TITLE "0:"
    INDEX 01 00:15:19
  TRACK 17 AUDIO
    TITLE "10:cjc041_2463"
    INDEX 01 00:15:74
  TRACK 18 AUDIO
    TITLE "0:"
    INDEX 01 00:17:14
  TRACK 19 AUDIO
    TITLE "11:cjc041_2464"
    INDEX 01 00:17:70
  TRACK 20 AUDIO
    TITLE "0:"
    INDEX 01 00:19:01
  TRACK 21 AUDIO
    TITLE "10:cjc041_2465"
    INDEX 01 00:19:56
  TRACK 22 AUDIO
    TITLE "0:"
    INDEX 01 00:21:04
  TRACK 23 AUDIO
    TITLE "11:cjc041_2466"
    INDEX 01 00:21:60
  TRACK 24 AUDIO
    TITLE "0:"
    INDEX 01 00:24:16
  TRACK 25 AUDIO
    TITLE "10:cjc041_2467"
    INDEX 01 00:24:67
  TRACK 26 AUDIO
    TITLE "0:"
    INDEX 01 00:26:07
  TRACK 27 AUDIO
    TITLE "11:cjc041_2468"
    INDEX 01 00:26:56
  TRACK 28 AUDIO
    TITLE "0:"
    INDEX 01 00:28:66
  TRACK 29 AUDIO
    TITLE "10:cjc041_2469"
    INDEX 01 00:29:40
  TRACK 30 AUDIO
    TITLE "0:"
    INDEX 01 00:30:69
  TRACK 31 AUDIO
    TITLE "11:cjc041_2470"
    INDEX 01 00:31:41
  TRACK 32 AUDIO
    TITLE "0:"
    INDEX 01 00:33:03
  TRACK 33 AUDIO
    TITLE "10:cjc041_2471"
    INDEX 01 00:33:54
  TRACK 34 AUDIO
    TITLE "0:"
    INDEX 01 00:35:04
  TRACK 35 AUDIO
    TITLE "11:cjc041_2472"
    INDEX 01 00:35:57
  TRACK 36 AUDIO
    TITLE "0:"
    INDEX 01 00:37:63
  TRACK 37 AUDIO
    TITLE "10:cjc041_2473"
    INDEX 01 00:38:39
  TRACK 38 AUDIO
    TITLE "0:"
    INDEX 01 00:39:58
  TRACK 39 AUDIO
    TITLE "11:cjc041_2474"
    INDEX 01 00:40:34
  TRACK 40 AUDIO
    TITLE "0:"
    INDEX 01 00:41:47
  TRACK 41 AUDIO
    TITLE "10:cjc041_2475"
    INDEX 01 00:42:25
  TRACK 42 AUDIO
    TITLE "0:"
    INDEX 01 00:43:42
  TRACK 43 AUDIO
    TITLE "11:cjc041_2476"
    INDEX 01 00:44:28
  TRACK 44 AUDIO
    TITLE "0:"
    INDEX 01 00:46:39
  TRACK 45 AUDIO
    TITLE "10:cjc041_2477"
    INDEX 01 00:47:19
  TRACK 46 AUDIO
    TITLE "0:"
    INDEX 01 00:48:40
  TRACK 47 AUDIO
    TITLE "11:cjc041_2478"
    INDEX 01 00:49:20
  TRACK 48 AUDIO
    TITLE "0:"
    INDEX 01 00:50:29
  TRACK 49 AUDIO
    TITLE "10:cjc041_2479"
    INDEX 01 00:51:09
  TRACK 50 AUDIO
    TITLE "0:"
    INDEX 01 00:52:26
  TRACK 51 AUDIO
    TITLE "11:cjc041_2480"
    INDEX 01 00:53:08
  TRACK 52 AUDIO
    TITLE "0:"
    INDEX 01 00:54:23
  TRACK 53 AUDIO
    TITLE "10:cjc041_2481"
    INDEX 01 00:55:04
  TRACK 54 AUDIO
    TITLE "0:"
    INDEX 01 00:56:12
  TRACK 55 AUDIO
    TITLE "11:cjc041_2482"
    INDEX 01 00:56:67
  TRACK 56 AUDIO
    TITLE "0:"
    INDEX 01 00:57:72
  TRACK 57 AUDIO
    TITLE "10:cjc041_2483"
    INDEX 01 00:58:48
  TRACK 58 AUDIO
    TITLE "0:"
    INDEX 01 00:59:43
  TRACK 59 AUDIO
    TITLE "11:cjc041_2484"
    INDEX 01 01:00:25
  TRACK 60 AUDIO
    TITLE "0:"
    INDEX 01 01:02:38
  TRACK 61 AUDIO
    TITLE "10:cjc041_2485"
    INDEX 01 01:03:20
  TRACK 62 AUDIO
    TITLE "0:"
    INDEX 01 01:04:29
  TRACK 63 AUDIO
    TITLE "11:cjc041_2486"
    INDEX 01 01:05:01
  TRACK 64 AUDIO
    TITLE "0:"
    INDEX 01 01:07:29
